<svg width="412" height="17" viewBox="0 0 412 17" fill="none" xmlns="http://www.w3.org/2000/svg">
<g clip-path="url(#clip0_2_39)">
<rect y="9" width="412" height="1" fill="#EFEFEF"/>
<rect x="176" y="3" width="61" height="14" fill="white"/>
<path d="M189.555 17.84L191.227 13.304L191.251 14.648L187.467 5.36H188.715L191.819 13.128H191.307L194.171 5.36H195.371L190.731 17.84H189.555ZM198.92 14.24C198.269 14.24 197.723 14.1227 197.28 13.888C196.843 13.6533 196.515 13.3413 196.296 12.952C196.077 12.5627 195.968 12.1387 195.968 11.68C195.968 11.2107 196.061 10.8107 196.248 10.48C196.44 10.144 196.699 9.86933 197.024 9.656C197.355 9.44267 197.736 9.28 198.168 9.168C198.605 9.06133 199.088 8.968 199.616 8.888C200.149 8.80267 200.669 8.73067 201.176 8.672C201.688 8.608 202.136 8.54667 202.52 8.488L202.104 8.744C202.12 7.89067 201.955 7.25867 201.608 6.848C201.261 6.43733 200.659 6.232 199.8 6.232C199.208 6.232 198.707 6.36533 198.296 6.632C197.891 6.89867 197.605 7.32 197.44 7.896L196.296 7.56C196.493 6.78667 196.891 6.18667 197.488 5.76C198.085 5.33333 198.861 5.12 199.816 5.12C200.605 5.12 201.275 5.26933 201.824 5.568C202.379 5.86133 202.771 6.288 203 6.848C203.107 7.09867 203.176 7.37867 203.208 7.688C203.24 7.99733 203.256 8.312 203.256 8.632V14H202.208V11.832L202.512 11.96C202.219 12.7013 201.763 13.2667 201.144 13.656C200.525 14.0453 199.784 14.24 198.92 14.24ZM199.056 13.224C199.605 13.224 200.085 13.1253 200.496 12.928C200.907 12.7307 201.237 12.4613 201.488 12.12C201.739 11.7733 201.901 11.384 201.976 10.952C202.04 10.6747 202.075 10.3707 202.08 10.04C202.085 9.704 202.088 9.45333 202.088 9.288L202.536 9.52C202.136 9.57333 201.701 9.62667 201.232 9.68C200.768 9.73333 200.309 9.79467 199.856 9.864C199.408 9.93333 199.003 10.016 198.64 10.112C198.395 10.1813 198.157 10.28 197.928 10.408C197.699 10.5307 197.509 10.696 197.36 10.904C197.216 11.112 197.144 11.3707 197.144 11.68C197.144 11.9307 197.205 12.1733 197.328 12.408C197.456 12.6427 197.659 12.8373 197.936 12.992C198.219 13.1467 198.592 13.224 199.056 13.224ZM211.894 14.24C211.089 14.24 210.401 14.04 209.83 13.64C209.259 13.2347 208.822 12.688 208.518 12C208.214 11.312 208.062 10.536 208.062 9.672C208.062 8.81333 208.211 8.04 208.51 7.352C208.814 6.664 209.249 6.12 209.814 5.72C210.379 5.32 211.057 5.12 211.846 5.12C212.657 5.12 213.339 5.31733 213.894 5.712C214.449 6.10667 214.867 6.648 215.15 7.336C215.438 8.01867 215.582 8.79733 215.582 9.672C215.582 10.5307 215.441 11.3067 215.158 12C214.875 12.688 214.459 13.2347 213.91 13.64C213.361 14.04 212.689 14.24 211.894 14.24ZM212.014 13.144C212.627 13.144 213.134 12.9947 213.534 12.696C213.934 12.3973 214.233 11.9867 214.43 11.464C214.627 10.936 214.726 10.3387 214.726 9.672C214.726 8.99467 214.627 8.39733 214.43 7.88C214.233 7.35733 213.934 6.94933 213.534 6.656C213.139 6.36267 212.641 6.216 212.038 6.216C211.419 6.216 210.907 6.368 210.502 6.672C210.097 6.976 209.795 7.38933 209.598 7.912C209.406 8.43467 209.31 9.02133 209.31 9.672C209.31 10.328 209.409 10.92 209.606 11.448C209.809 11.9707 210.11 12.384 210.51 12.688C210.91 12.992 211.411 13.144 212.014 13.144ZM214.726 14V7.496H214.598V2.48H215.782V14H214.726ZM220.498 14.24C219.848 14.24 219.301 14.1227 218.858 13.888C218.421 13.6533 218.093 13.3413 217.874 12.952C217.656 12.5627 217.546 12.1387 217.546 11.68C217.546 11.2107 217.64 10.8107 217.826 10.48C218.018 10.144 218.277 9.86933 218.602 9.656C218.933 9.44267 219.314 9.28 219.746 9.168C220.184 9.06133 220.666 8.968 221.194 8.888C221.728 8.80267 222.248 8.73067 222.754 8.672C223.266 8.608 223.714 8.54667 224.098 8.488L223.682 8.744C223.698 7.89067 223.533 7.25867 223.186 6.848C222.84 6.43733 222.237 6.232 221.378 6.232C220.786 6.232 220.285 6.36533 219.874 6.632C219.469 6.89867 219.184 7.32 219.018 7.896L217.874 7.56C218.072 6.78667 218.469 6.18667 219.066 5.76C219.664 5.33333 220.44 5.12 221.394 5.12C222.184 5.12 222.853 5.26933 223.402 5.568C223.957 5.86133 224.349 6.288 224.578 6.848C224.685 7.09867 224.754 7.37867 224.786 7.688C224.818 7.99733 224.834 8.312 224.834 8.632V14H223.786V11.832L224.09 11.96C223.797 12.7013 223.341 13.2667 222.722 13.656C222.104 14.0453 221.362 14.24 220.498 14.24ZM220.634 13.224C221.184 13.224 221.664 13.1253 222.074 12.928C222.485 12.7307 222.816 12.4613 223.066 12.12C223.317 11.7733 223.48 11.384 223.554 10.952C223.618 10.6747 223.653 10.3707 223.658 10.04C223.664 9.704 223.666 9.45333 223.666 9.288L224.114 9.52C223.714 9.57333 223.28 9.62667 222.81 9.68C222.346 9.73333 221.888 9.79467 221.434 9.864C220.986 9.93333 220.581 10.016 220.218 10.112C219.973 10.1813 219.736 10.28 219.506 10.408C219.277 10.5307 219.088 10.696 218.938 10.904C218.794 11.112 218.722 11.3707 218.722 11.68C218.722 11.9307 218.784 12.1733 218.906 12.408C219.034 12.6427 219.237 12.8373 219.514 12.992C219.797 13.1467 220.17 13.224 220.634 13.224Z" fill="#5F7263"/>
</g>
<defs>
<clipPath id="clip0_2_39">
<rect width="412" height="17" fill="white"/>
</clipPath>
</defs>
</svg>
