<svg width="19" height="19" viewBox="0 0 19 19" fill="none" xmlns="http://www.w3.org/2000/svg">
<g id="Google Logo">
<path id="Vector" d="M18.14 9.70456C18.14 9.06637 18.0827 8.45274 17.9764 7.86365H9.5V11.3491H14.3436C14.1309 12.47 13.4927 13.4191 12.5355 14.0573V16.3236H15.4564C17.1582 14.7527 18.14 12.4455 18.14 9.70456Z" fill="#4285F4"/>
<path id="Vector_2" d="M9.50012 18.5C11.9301 18.5 13.9674 17.6981 15.4565 16.3236L12.5356 14.0572C11.7338 14.5972 10.711 14.9245 9.50012 14.9245C7.16012 14.9245 5.17194 13.3454 4.46012 11.2181H1.46558V13.5418C2.94649 16.479 5.98194 18.5 9.50012 18.5Z" fill="#34A853"/>
<path id="Vector_3" d="M4.46 11.2101C4.28 10.6701 4.17364 10.0973 4.17364 9.50007C4.17364 8.90279 4.28 8.33007 4.46 7.79007V5.46643H1.46545C0.851818 6.67734 0.5 8.0437 0.5 9.50007C0.5 10.9564 0.851818 12.3228 1.46545 13.5337L3.79727 11.7173L4.46 11.2101Z" fill="#FBBC05"/>
<path id="Vector_4" d="M9.50012 4.08364C10.8256 4.08364 12.0038 4.54182 12.9447 5.42545L15.5219 2.84818C13.9592 1.39182 11.9301 0.5 9.50012 0.5C5.98194 0.5 2.94649 2.52091 1.46558 5.46636L4.46012 7.79C5.17194 5.66273 7.16012 4.08364 9.50012 4.08364Z" fill="#EA4335"/>
</g>
</svg>
