<svg width="268" height="57" viewBox="0 0 268 57" fill="none" xmlns="http://www.w3.org/2000/svg">
<g clip-path="url(#clip0_2_19)">
<path fill-rule="evenodd" clip-rule="evenodd" d="M28.4768 6.50797L32.256 0L42.9703 6.15172L39.1925 12.6583C38.5289 13.7997 39.5221 15.1876 40.8234 14.9383L48.0637 13.5489L50.4069 25.6286L43.1666 27.0166C31.4549 29.2624 22.5134 16.7794 28.4768 6.50797Z" fill="#09A334"/>
<path fill-rule="evenodd" clip-rule="evenodd" d="M21.9301 50.492L18.1509 57L7.43521 50.8496L11.2144 44.3417C11.878 43.2003 10.8848 41.8123 9.58207 42.0617L2.34321 43.4496L0 31.3713L7.2403 29.9834C18.952 27.7376 27.8921 40.2206 21.9301 50.492Z" fill="#09A334"/>
<path fill-rule="evenodd" clip-rule="evenodd" d="M22.2569 6.50797L18.4791 0L7.76336 6.15172L11.5426 12.6583C12.2047 13.7997 11.213 15.1876 9.91023 14.9383L2.66993 13.5489L0.32959 25.6286L7.56846 27.0166C19.2816 29.2624 28.2231 16.7794 22.2583 6.50797H22.2569Z" fill="#09A334"/>
<path fill-rule="evenodd" clip-rule="evenodd" d="M28.1614 50.492L31.9378 57L42.6535 50.8496L38.8743 44.3417C38.2122 43.2003 39.2039 41.8123 40.5066 42.0617L47.7455 43.4496L50.0887 31.3713L42.8484 29.9834C31.1367 27.7376 22.1967 40.2206 28.1586 50.492H28.1614Z" fill="#09A334"/>
<path d="M233.768 42.968V30.8555C233.768 29.1768 234.156 27.6706 234.933 26.3382C235.737 24.9788 236.876 23.9129 238.351 23.1391C239.826 22.3668 241.581 21.9806 243.618 21.9806C244.568 21.9714 245.515 22.0922 246.433 22.3397C247.291 22.5534 248.068 22.8598 248.764 23.2588C249.488 23.6322 250.104 24.0853 250.615 24.6182H250.695C251.241 24.0777 251.864 23.6197 252.544 23.2588C253.291 22.8501 254.089 22.5411 254.917 22.3397C255.848 22.094 256.808 21.9732 257.772 21.9806C259.808 21.9806 261.564 22.3653 263.039 23.1391C264.512 23.9129 265.651 24.9774 266.455 26.3382C267.261 27.6706 267.662 29.1754 267.662 30.8555V42.968H261.389V31.055C261.389 30.3895 261.216 29.7896 260.867 29.2566C260.548 28.6992 260.091 28.2315 259.54 27.8972C258.959 27.5457 258.29 27.3653 257.61 27.3771C256.886 27.3771 256.23 27.5509 255.641 27.8972C255.089 28.231 254.633 28.6989 254.313 29.2566C253.988 29.8001 253.821 30.4227 253.831 31.055V42.968H247.599V31.055C247.599 30.3895 247.424 29.7896 247.076 29.2566C246.749 28.6911 246.278 28.222 245.709 27.8972C245.128 27.5457 244.458 27.3653 243.778 27.3771C243.055 27.3771 242.398 27.5509 241.809 27.8972C241.258 28.231 240.801 28.6989 240.482 29.2566C240.158 29.8004 239.991 30.4227 239.999 31.055V42.968H233.768ZM220.137 43.4482C218.02 43.4482 216.183 43.0492 214.629 42.2484C213.102 41.4219 211.922 40.316 211.091 38.931C210.26 37.5188 209.844 35.9584 209.844 34.2527V22.4594H216.077V34.0931C216.077 34.8127 216.25 35.4796 216.599 36.0924C216.947 36.678 217.417 37.1582 218.006 37.5316C218.622 37.8779 219.32 38.0517 220.097 38.0517C220.848 38.0517 221.517 37.8779 222.108 37.5316C222.724 37.1582 223.207 36.678 223.555 36.0924C223.903 35.4796 224.078 34.8127 224.078 34.0931V22.4594H230.31V34.2527C230.31 35.9584 229.907 37.5188 229.103 38.931C228.299 40.316 227.134 41.4233 225.606 42.2484C224.104 43.0478 222.281 43.4482 220.137 43.4482ZM189.77 42.968V38.0517H199.702C199.97 38.0517 200.21 37.9976 200.425 37.8907C200.639 37.7582 200.814 37.5843 200.947 37.372C201.078 37.162 201.148 36.9196 201.148 36.6723C201.148 36.425 201.078 36.1827 200.947 35.9727C200.822 35.7671 200.641 35.6007 200.425 35.4924C200.208 35.3586 199.957 35.2894 199.702 35.2929H196.083C194.742 35.2929 193.522 35.0792 192.424 34.6531C191.381 34.2236 190.487 33.5011 189.85 32.574C189.234 31.615 188.926 30.3752 188.926 28.8562C188.926 27.6834 189.207 26.6175 189.77 25.6585C190.356 24.7024 191.171 23.9054 192.142 23.3386C193.155 22.7538 194.308 22.4502 195.48 22.4594H205.41V27.417H196.444C196.088 27.4098 195.743 27.5389 195.48 27.7775C195.362 27.8917 195.269 28.0286 195.207 28.1798C195.145 28.331 195.114 28.4933 195.117 28.6567C195.117 29.0301 195.239 29.3493 195.48 29.6157C195.743 29.8543 196.088 29.9834 196.444 29.9762H199.983C201.483 29.9762 202.77 30.2028 203.842 30.6545C204.941 31.082 205.785 31.7746 206.376 32.7351C206.992 33.6941 207.3 34.9324 207.3 36.4515C207.3 37.6513 206.992 38.7443 206.376 39.7289C205.791 40.7105 204.959 41.5237 203.962 42.0887C202.971 42.6758 201.846 42.968 200.586 42.968H189.77ZM176.192 21.9806C177.935 21.9806 179.476 22.2599 180.816 22.8199C182.132 23.3189 183.315 24.1121 184.274 25.1384C185.251 26.1439 186.004 27.3427 186.485 28.6567C186.994 29.9891 187.249 31.4682 187.249 33.0942C187.249 35.1191 186.82 36.9188 185.962 38.4906C185.169 39.997 183.973 41.256 182.505 42.1286C181.031 43.0079 179.315 43.4482 177.359 43.4482C176.528 43.4482 175.736 43.3413 174.985 43.129C174.274 42.9211 173.597 42.6109 172.976 42.2085C172.391 41.8135 171.886 41.3115 171.489 40.7293H171.367V51.6448H165.135V33.0927C165.135 30.827 165.591 28.8676 166.503 27.216C167.386 25.5904 168.727 24.2562 170.362 23.3771C172.025 22.4451 173.968 21.9792 176.192 21.9792V21.9806ZM176.192 27.3372C175.228 27.3372 174.384 27.5765 173.66 28.0568C172.962 28.5099 172.426 29.1497 172.05 29.9762C171.676 30.7743 171.489 31.682 171.489 32.6937C171.489 33.7069 171.676 34.6132 172.05 35.4126C172.426 36.212 172.962 36.8519 173.66 37.3321C174.384 37.7852 175.228 38.0118 176.192 38.0118C177.157 38.0118 177.988 37.7838 178.684 37.3321C179.385 36.8485 179.942 36.1852 180.294 35.4126C180.695 34.6132 180.896 33.7069 180.896 32.6937C180.896 31.682 180.695 30.7757 180.294 29.9762C179.918 29.1497 179.382 28.5085 178.684 28.0568C177.988 27.5765 177.157 27.3372 176.192 27.3372ZM155.665 42.968V22.4594H161.938V42.968H155.665ZM158.801 20.1409C157.809 20.1409 156.952 19.7818 156.228 19.0622C155.505 18.3426 155.142 17.489 155.142 16.5029C155.142 15.5168 155.505 14.6646 156.228 13.945C156.952 13.1983 157.809 12.825 158.801 12.825C159.793 12.825 160.651 13.1983 161.375 13.945C162.099 14.6646 162.46 15.5168 162.46 16.5029C162.46 17.489 162.099 18.3411 161.375 19.0622C160.651 19.7818 159.793 20.1409 158.801 20.1409ZM142.033 43.4482C139.916 43.4482 138.013 42.9822 136.323 42.0488C134.666 41.1454 133.279 39.8213 132.303 38.2113C131.339 36.5854 130.856 34.76 130.856 32.7336C130.856 30.6816 131.339 28.8562 132.303 27.2574C133.279 25.6474 134.666 24.3233 136.323 23.4198C138.013 22.4594 139.916 21.9806 142.033 21.9806C144.151 21.9806 146.04 22.4594 147.702 23.4198C149.354 24.317 150.73 25.6434 151.682 27.2574C152.674 28.8562 153.17 30.6816 153.17 32.7336C153.17 34.76 152.674 36.5854 151.682 38.2113C150.73 39.8253 149.354 41.1517 147.702 42.0488C146.014 42.9822 144.124 43.4482 142.033 43.4482ZM142.033 38.0517C143.025 38.0517 143.883 37.8109 144.607 37.3321C145.331 36.8524 145.913 36.1899 146.295 35.4126C146.698 34.6132 146.898 33.7069 146.898 32.6937C146.898 31.7076 146.698 30.8156 146.295 30.0147C145.913 29.2379 145.331 28.5759 144.607 28.0967C143.883 27.6164 143.025 27.3771 142.033 27.3771C141.041 27.3771 140.17 27.6164 139.42 28.0967C138.696 28.5764 138.113 29.2388 137.731 30.0161C137.321 30.8497 137.115 31.7675 137.129 32.6952C137.129 33.7069 137.329 34.6132 137.731 35.4126C138.113 36.1899 138.696 36.8523 139.42 37.3321C140.17 37.8109 141.041 38.0517 142.033 38.0517ZM110.602 51.0848V45.7667H120.894C121.297 45.7667 121.632 45.6342 121.9 45.3677C122.031 45.2529 122.134 45.1109 122.204 44.9518C122.273 44.7927 122.306 44.6204 122.301 44.4471V39.9299H122.181C121.672 40.5186 121.091 41.0422 120.452 41.4888C119.862 41.9163 119.191 42.2355 118.442 42.4493C117.644 42.6721 116.818 42.7797 115.99 42.7685C114.167 42.7685 112.531 42.341 111.084 41.4888C109.664 40.6096 108.537 39.3969 107.706 37.8508C106.903 36.3061 106.501 34.5462 106.501 32.574C106.501 30.6289 106.916 28.8562 107.748 27.2574C108.605 25.6585 109.851 24.3788 111.487 23.4198C113.12 22.4594 115.118 21.9806 117.477 21.9806C119.729 21.9806 121.672 22.4466 123.307 23.3799C124.949 24.2661 126.292 25.6144 127.167 27.2559C128.078 28.9089 128.534 30.8555 128.534 33.0942V45.0869C128.534 46.9252 127.985 48.3787 126.886 49.4446C125.814 50.5376 124.326 51.0834 122.423 51.0834L110.602 51.0848ZM117.517 37.5715C118.482 37.5715 119.313 37.3577 120.011 36.9317C120.7 36.4871 121.255 35.8657 121.618 35.1333C121.999 34.3624 122.192 33.5129 122.181 32.6538C122.181 31.6948 121.995 30.8156 121.619 30.0161C121.244 29.2167 120.708 28.5897 120.01 28.1366C119.313 27.6564 118.482 27.417 117.516 27.417C116.579 27.417 115.747 27.6435 115.024 28.0967C114.327 28.5498 113.791 29.1626 113.416 29.9349C113.042 30.7087 112.854 31.5737 112.854 32.5341C112.854 33.4675 113.04 34.3197 113.416 35.0934C113.791 35.8387 114.327 36.4386 115.025 36.8918C115.747 37.3449 116.579 37.5715 117.517 37.5715ZM93.8331 43.4482C91.7163 43.4482 89.8131 42.9822 88.1248 42.0488C86.4667 41.1457 85.079 39.8215 84.1034 38.2113C83.1389 36.5854 82.6559 34.76 82.6559 32.7336C82.6559 30.6816 83.1389 28.8562 84.1034 27.2574C85.079 25.6471 86.4667 24.323 88.1248 23.4198C89.8131 22.4594 91.7163 21.9806 93.8331 21.9806C95.9513 21.9806 97.8402 22.4594 99.5026 23.4198C101.154 24.3171 102.53 25.6435 103.483 27.2574C104.474 28.8562 104.97 30.6816 104.97 32.7336C104.97 34.76 104.474 36.5854 103.483 38.2113C102.53 39.8252 101.154 41.1516 99.5026 42.0488C97.8144 42.9822 95.924 43.4482 93.8331 43.4482ZM93.8331 38.0517C94.8248 38.0517 95.6818 37.8109 96.407 37.3321C97.1307 36.8521 97.7132 36.1897 98.0953 35.4126C98.4966 34.6132 98.6972 33.7069 98.6972 32.6937C98.6972 31.7076 98.4966 30.8156 98.0953 30.0147C97.7131 29.2381 97.1305 28.5763 96.407 28.0967C95.6833 27.6164 94.8248 27.3771 93.8331 27.3771C92.8413 27.3771 91.97 27.6164 91.2204 28.0967C90.4962 28.5764 89.913 29.2388 89.5307 30.0161C89.1213 30.8498 88.9151 31.7675 88.9288 32.6952C88.9288 33.7069 89.1295 34.6132 89.5307 35.4126C89.9132 36.1899 90.4963 36.8523 91.2204 37.3321C91.97 37.8109 92.8413 38.0517 93.8331 38.0517ZM73.875 42.968C72.1322 42.968 70.6045 42.5832 69.2917 41.8095C68.0149 41.0733 66.9598 40.0105 66.2362 38.7315C65.5125 37.4518 65.1499 36.0382 65.1499 34.4935V14.9838H71.9044V34.9723C71.9044 35.6136 72.1337 36.1722 72.588 36.6524C73.0437 37.1312 73.6055 37.372 74.2762 37.372H81.7143V42.968H73.875Z" fill="#2A362D"/>
</g>
<defs>
<clipPath id="clip0_2_19">
<rect width="268" height="57" fill="white"/>
</clipPath>
</defs>
</svg>
